<svg xmlns="http://www.w3.org/2000/svg" enable-background="new 0 0 64 64" viewBox="0 0 64 64"><path fill="#2a2f63" d="M44.99,0H19.01c-2.3,0-4.17,1.86-4.17,4.16v55.67c0,2.3,1.87,4.17,4.17,4.17h25.98c2.3,0,4.17-1.87,4.17-4.17
		V4.16C49.16,1.86,47.29,0,44.99,0z M46.3,59.83c0,0.72-0.59,1.3-1.31,1.3H19.01c-0.72,0-1.3-0.58-1.3-1.3V57.1H46.3V59.83z
		 M46.3,54.23H17.71V9.82H46.3V54.23z M46.3,6.95H17.71V4.16c0-0.71,0.58-1.3,1.3-1.3h25.98c0.72,0,1.31,0.59,1.31,1.3V6.95z"/><path fill="#d6e9f2" d="M17.71,9.82v44.41H46.3V9.82H17.71z M32,14.26c2.86,0,5.19,2.31,5.19,5.13c0,2.83-2.33,5.13-5.19,5.13
		s-5.18-2.3-5.18-5.13C26.82,16.57,29.14,14.26,32,14.26z M39.38,49.73H24.62c-0.79,0-1.44-0.64-1.44-1.44
		c0-0.79,0.65-1.43,1.44-1.43h14.76c0.79,0,1.44,0.64,1.44,1.43C40.82,49.09,40.17,49.73,39.38,49.73z M39.38,44.89H24.62
		c-0.79,0-1.44-0.64-1.44-1.43s0.65-1.43,1.44-1.43h14.76c0.79,0,1.44,0.64,1.44,1.43S40.17,44.89,39.38,44.89z M41.28,36.21
		c0,1.07-0.87,1.93-1.94,1.93H24.66c-1.07,0-1.94-0.86-1.94-1.93v-2.07c0-5.11,4.17-9.28,9.28-9.28s9.28,4.17,9.28,9.28V36.21z"/><path fill="#ffdb7c" d="M17.71 57.1v2.73c0 .72.58 1.3 1.3 1.3h25.98c.72 0 1.31-.58 1.31-1.3V57.1H17.71zM33.03 60.77h-2.06c-.79 0-1.44-.64-1.44-1.43s.65-1.43 1.44-1.43h2.06c.79 0 1.44.64 1.44 1.43S33.82 60.77 33.03 60.77zM44.99 2.86H19.01c-.72 0-1.3.59-1.3 1.3v2.79H46.3V4.16C46.3 3.45 45.71 2.86 44.99 2.86zM34.19 6.09h-4.38c-.79 0-1.43-.65-1.43-1.44s.64-1.43 1.43-1.43h4.38c.79 0 1.43.64 1.43 1.43S34.98 6.09 34.19 6.09z"/><path fill="#2a2f63" d="M35.62 4.65c0 .79-.64 1.44-1.43 1.44h-4.38c-.79 0-1.43-.65-1.43-1.44s.64-1.43 1.43-1.43h4.38C34.98 3.22 35.62 3.86 35.62 4.65zM34.47 59.34c0 .79-.65 1.43-1.44 1.43h-2.06c-.79 0-1.44-.64-1.44-1.43s.65-1.43 1.44-1.43h2.06C33.82 57.91 34.47 58.55 34.47 59.34zM32 24.86c-5.11 0-9.28 4.17-9.28 9.28v2.07c0 1.07.87 1.93 1.94 1.93h14.68c1.07 0 1.94-.86 1.94-1.93v-2.07C41.28 29.03 37.11 24.86 32 24.86zM38.41 35.28H37.9v-1.96c0-.79-.64-1.43-1.43-1.43-.79 0-1.43.64-1.43 1.43v1.96h-6.08v-1.96c0-.79-.64-1.43-1.43-1.43-.79 0-1.43.64-1.43 1.43v1.96h-.51v-1.14c0-3.53 2.88-6.41 6.41-6.41s6.41 2.88 6.41 6.41V35.28z"/><path fill="#f16e61" d="M38.41,34.14v1.14H37.9v-1.96c0-0.79-0.64-1.43-1.43-1.43c-0.79,0-1.43,0.64-1.43,1.43v1.96h-6.08v-1.96
		c0-0.79-0.64-1.43-1.43-1.43c-0.79,0-1.43,0.64-1.43,1.43v1.96h-0.51v-1.14c0-3.53,2.88-6.41,6.41-6.41S38.41,30.61,38.41,34.14z"/><path fill="#2a2f63" d="M32,14.26c-2.86,0-5.18,2.31-5.18,5.13c0,2.83,2.32,5.13,5.18,5.13s5.19-2.3,5.19-5.13
		C37.19,16.57,34.86,14.26,32,14.26z M32,21.66c-1.28,0-2.32-1.02-2.32-2.27c0-1.24,1.04-2.26,2.32-2.26c1.28,0,2.32,1.02,2.32,2.26
		C34.32,20.64,33.28,21.66,32,21.66z"/><path fill="#ffe4aa" d="M34.32,19.39c0,1.25-1.04,2.27-2.32,2.27c-1.28,0-2.32-1.02-2.32-2.27c0-1.24,1.04-2.26,2.32-2.26
		C33.28,17.13,34.32,18.15,34.32,19.39z"/><path fill="#2a2f63" d="M40.82 43.46c0 .79-.65 1.43-1.44 1.43H24.62c-.79 0-1.44-.64-1.44-1.43s.65-1.43 1.44-1.43h14.76C40.17 42.03 40.82 42.67 40.82 43.46zM40.82 48.29c0 .8-.65 1.44-1.44 1.44H24.62c-.79 0-1.44-.64-1.44-1.44 0-.79.65-1.43 1.44-1.43h14.76C40.17 46.86 40.82 47.5 40.82 48.29z"/></svg>